<svg height="200px" width="200px" version="1.1" id="Layer_1" xmlns="http://www.w3.org/2000/svg" xmlns:xlink="http://www.w3.org/1999/xlink" viewBox="0 0 511.982 511.982" xml:space="preserve" fill="#000000"><g id="SVGRepo_bgCarrier" stroke-width="0"></g><g id="SVGRepo_tracerCarrier" stroke-linecap="round" stroke-linejoin="round"></g><g id="SVGRepo_iconCarrier"> <g> <path style="fill:#7F4545;" d="M159.994,0c-35.343,0-63.998,28.655-63.998,63.998c0,35.342,28.655,63.997,63.998,63.997 s63.998-28.655,63.998-63.997C223.992,28.655,195.337,0,159.994,0z"></path> <path style="fill:#7F4545;" d="M351.988,0c-35.343,0-63.998,28.655-63.998,63.998c0,35.342,28.655,63.997,63.998,63.997 c35.342,0,63.998-28.655,63.998-63.997C415.986,28.655,387.33,0,351.988,0z"></path> </g> <g> <circle style="fill:#F4BE8E;" cx="159.991" cy="64.001" r="31.999"></circle> <circle style="fill:#F4BE8E;" cx="351.991" cy="64.001" r="31.999"></circle> </g> <path style="fill:#965353;" d="M384.128,149.323c0,70.731-57.342,128.073-128.074,128.073s-128.058-57.342-128.058-128.073 c0-70.717,57.326-128.059,128.058-128.059C326.786,21.264,384.128,78.606,384.128,149.323z"></path> <path style="fill:#F4BE8E;" d="M255.366,159.994c-29.405,0-53.326,23.921-53.326,53.326s23.921,53.343,53.326,53.343 s53.327-23.938,53.327-53.343S284.771,159.994,255.366,159.994z"></path> <path style="fill:#ED5564;" d="M322.645,197.321c-26.108,0-49.718,10.734-66.654,28.03c-16.937-17.296-40.545-28.03-66.669-28.03 c-51.545,0-93.325,41.796-93.325,93.34c-0.001,106.653,159.994,199.994,159.994,199.994s159.995-93.341,159.995-199.994 C415.986,239.117,374.19,197.321,322.645,197.321z"></path> <g> <path style="fill:#A85D5D;" d="M159.994,298.677c0,35.374-21.5,64.029-47.999,64.029c-26.515,0-47.998-28.655-47.998-64.029 c0-35.357,21.483-64.013,47.998-64.013C138.495,234.664,159.994,263.319,159.994,298.677z"></path> <path style="fill:#A85D5D;" d="M447.984,298.677c0,35.374-21.498,64.029-47.998,64.029c-26.515,0-47.998-28.655-47.998-64.029 c0-35.357,21.483-64.013,47.998-64.013C426.486,234.664,447.984,263.319,447.984,298.677z"></path> </g> <path style="fill:#F4BE8E;" d="M341.316,490.655c-10.766,0-21.077-5.125-29.061-14.422c-8.766-10.25-13.609-24.062-13.609-38.92 c0-14.844,4.844-28.672,13.609-38.905c7.983-9.297,18.295-14.421,29.061-14.421s21.094,5.124,29.062,14.421 c8.766,10.233,13.609,24.062,13.609,38.905c0,14.858-4.844,28.67-13.609,38.92C362.41,485.53,352.082,490.655,341.316,490.655z"></path> <path style="fill:#A85D5D;" d="M341.316,362.659c-35.342,0-63.998,33.421-63.998,74.654c0,41.232,28.656,74.669,63.998,74.669 c35.343,0,63.998-33.437,63.998-74.669C405.314,396.08,376.659,362.659,341.316,362.659z M354.176,462.343 c-2.719,3.188-7.172,6.969-12.859,6.969s-10.141-3.781-12.859-6.969c-5.39-6.28-8.468-15.405-8.468-25.029 c0-9.625,3.078-18.734,8.468-25.031c2.719-3.172,7.172-6.969,12.859-6.969s10.141,3.797,12.859,6.969 c5.391,6.297,8.469,15.406,8.469,25.031C362.645,446.937,359.566,456.062,354.176,462.343z"></path> <path style="fill:#F4BE8E;" d="M170.65,490.655c-10.765,0-21.077-5.125-29.046-14.422c-8.781-10.25-13.609-24.062-13.609-38.92 c0-14.844,4.828-28.672,13.609-38.905c7.969-9.297,18.281-14.421,29.046-14.421c10.781,0,21.093,5.124,29.062,14.421 c8.781,10.233,13.609,24.062,13.609,38.905c0,14.858-4.828,28.67-13.609,38.92C191.743,485.53,181.431,490.655,170.65,490.655z"></path> <path style="fill:#A85D5D;" d="M170.65,362.659c-35.342,0-63.998,33.421-63.998,74.654c0,41.232,28.655,74.669,63.998,74.669 c35.358,0,63.998-33.437,63.998-74.669C234.648,396.08,206.009,362.659,170.65,362.659z M183.509,462.343 c-2.718,3.188-7.156,6.969-12.859,6.969c-5.687,0-10.125-3.781-12.859-6.969c-5.375-6.28-8.468-15.405-8.468-25.029 c0-9.625,3.094-18.734,8.468-25.031c2.734-3.172,7.172-6.969,12.859-6.969c5.703,0,10.141,3.797,12.859,6.969 c5.391,6.297,8.484,15.406,8.484,25.031C191.993,446.937,188.9,456.062,183.509,462.343z"></path> <g> <path style="fill:#965353;" d="M138.651,298.692c5.891,0,10.672,4.766,10.672,10.656s-4.781,10.672-10.672,10.672 c-5.89,0-10.656-4.781-10.656-10.672S132.761,298.692,138.651,298.692z"></path> <path style="fill:#965353;" d="M138.651,277.428c5.891,0,10.672,4.781,10.672,10.656c0,5.905-4.781,10.671-10.672,10.671 c-5.89,0-10.656-4.781-10.656-10.671C127.995,282.209,132.761,277.428,138.651,277.428z"></path> <path style="fill:#965353;" d="M373.315,298.661c5.891,0,10.672,4.766,10.672,10.656s-4.781,10.672-10.672,10.672 c-5.89,0-10.671-4.781-10.671-10.672S367.426,298.661,373.315,298.661z"></path> <path style="fill:#965353;" d="M373.315,277.396c5.891,0,10.672,4.766,10.672,10.656s-4.781,10.671-10.672,10.671 c-5.89,0-10.671-4.781-10.671-10.671C362.645,282.162,367.426,277.396,373.315,277.396z"></path> </g> <g> <path style="fill:#434A54;" d="M287.99,106.668c5.891,0,10.656,4.766,10.656,10.656s-4.766,10.671-10.656,10.671 s-10.672-4.78-10.672-10.671S282.099,106.668,287.99,106.668z"></path> <path style="fill:#434A54;" d="M223.992,106.668c5.89,0,10.656,4.766,10.656,10.656s-4.766,10.671-10.656,10.671 c-5.891,0-10.672-4.78-10.672-10.671S218.102,106.668,223.992,106.668z"></path> <path style="fill:#434A54;" d="M255.991,181.322c5.891,0,10.656,4.78,10.656,10.671s-4.766,10.672-10.656,10.672 c-5.89,0-10.671-4.781-10.671-10.672S250.101,181.322,255.991,181.322z"></path> </g> </g></svg>